<?xml version="1.0" encoding="UTF-8" standalone="no"?>
<!-- Created with Inkscape (http://www.inkscape.org/) -->

<svg
   width="58.66399mm"
   height="58.664001mm"
   viewBox="0 0 58.663991 58.664002"
   version="1.1"
   id="svg5"
   inkscape:version="1.3.2 (091e20ef0f, 2023-11-25, custom)"
   xml:space="preserve"
   sodipodi:docname="drawing.svg"
   xmlns:inkscape="http://www.inkscape.org/namespaces/inkscape"
   xmlns:sodipodi="http://sodipodi.sourceforge.net/DTD/sodipodi-0.dtd"
   xmlns="http://www.w3.org/2000/svg"
   xmlns:svg="http://www.w3.org/2000/svg"><sodipodi:namedview
     id="namedview7"
     pagecolor="#222222"
     bordercolor="#eeeeee"
     borderopacity="1"
     inkscape:pageshadow="0"
     inkscape:pageopacity="0"
     inkscape:pagecheckerboard="0"
     inkscape:document-units="mm"
     showgrid="false"
     fit-margin-top="0"
     fit-margin-left="0"
     fit-margin-right="0"
     fit-margin-bottom="0"
     inkscape:showpageshadow="0"
     inkscape:deskcolor="#d1d1d1"
     inkscape:zoom="1.475"
     inkscape:cx="61.694913"
     inkscape:cy="170.84745"
     inkscape:window-width="1920"
     inkscape:window-height="1014"
     inkscape:window-x="1920"
     inkscape:window-y="29"
     inkscape:window-maximized="1"
     inkscape:current-layer="layer1" /><defs
     id="defs2" /><g
     inkscape:label="Layer 1"
     inkscape:groupmode="layer"
     id="layer1"
     transform="translate(-95.58945,-227.91359)"
     style="display:inline"><g
       id="g12"
       transform="translate(388.47047,-133.25784)"><path
         id="path1"
         style="fill:#272822;stroke-width:0.955467;stroke-linecap:round;paint-order:stroke fill markers"
         d="m -292.88102,361.17143 h 58.66399 v 58.664 h -58.66399 z" /><path
         id="path9"
         style="font-style:italic;font-weight:bold;font-size:9.08684px;line-height:1.25;font-family:'JetBrains Mono';-inkscape-font-specification:'JetBrains Mono Bold Italic';font-variant-ligatures:none;letter-spacing:-0.155233px;fill:#fd971f;stroke-width:0.533705"
         d="m -276.15331,374.58759 -0.45867,2.82281 -0.29291,2.2912 c -0.0855,-0.6232 -0.34159,-1.1123 -0.76929,-1.46666 -0.4277,-0.35438 -0.99008,-0.53163 -1.68658,-0.53163 -1.03867,0 -1.8998,0.33592 -2.58411,1.008 -0.6721,0.6721 -1.10645,1.62509 -1.30196,2.85929 l -0.43989,2.73108 c -0.12224,0.76986 -0.0916,1.44166 0.0917,2.01599 0.19546,0.57432 0.51282,1.02725 0.95274,1.35721 0.4399,0.3177 0.9782,0.47637 1.61363,0.47637 0.73319,0 1.36234,-0.17167 1.88778,-0.51389 0.53767,-0.35437 0.94035,-0.86101 1.20918,-1.52086 l -0.29292,1.85129 h 2.23594 l 2.12649,-13.38021 z m 8.41213,3.11573 c -1.34416,0 -2.44485,0.3545 -3.30023,1.06325 -0.84315,0.69652 -1.36836,1.68568 -1.5761,2.96875 l -0.38464,2.38292 c -0.13434,0.8065 -0.0732,1.51547 0.18356,2.12648 0.2566,0.59877 0.67239,1.06927 1.24671,1.4114 0.5863,0.32979 1.30805,0.49499 2.16296,0.49514 1.13598,-1.6e-4 2.10175,-0.25071 2.89579,-0.75157 0.79427,-0.50101 1.34358,-1.20347 1.64907,-2.10771 h -2.25367 c -0.12225,0.31769 -0.36726,0.56171 -0.73385,0.73278 -0.36658,0.15876 -0.78785,0.23872 -1.26444,0.23872 -0.64763,0 -1.12465,-0.17167 -1.43016,-0.51391 -0.29332,-0.35438 -0.37867,-0.87302 -0.25642,-1.55732 l 0.11049,-0.64213 h 3.55559 c 0.84315,0 1.53357,-0.21337 2.07125,-0.64107 0.54986,-0.42768 0.88575,-1.0448 1.00798,-1.8513 0.0978,-0.65986 0.006,-1.24083 -0.27516,-1.74185 -0.28109,-0.51324 -0.71438,-0.91039 -1.30094,-1.19147 -0.58654,-0.28105 -1.28898,-0.42112 -2.10771,-0.42112 z m 5.7905,0.18337 1.79606,10.081 h 2.91451 l 4.96701,-10.081 h -2.49236 l -2.87806,6.1397 c -0.17106,0.35438 -0.33628,0.72093 -0.49513,1.09973 -0.14664,0.3666 -0.25063,0.68497 -0.31167,0.9538 0.0121,-0.26883 -0.006,-0.5872 -0.0543,-0.9538 -0.0367,-0.3788 -0.0795,-0.75086 -0.12828,-1.11743 l -0.99025,-6.122 z m -6.08446,1.5761 c 0.57435,0 1.01419,0.1531 1.31966,0.45867 0.31769,0.29327 0.44023,0.67735 0.36693,1.15391 -0.0611,0.34211 -0.17711,0.58061 -0.34816,0.71508 -0.15875,0.13454 -0.35468,0.20224 -0.58686,0.20224 l -3.17097,0.0181 0.0553,-0.34816 c 0.0978,-0.69653 0.34832,-1.23377 0.75157,-1.61258 0.41545,-0.39105 0.9527,-0.58687 1.61258,-0.58687 z m -10.79402,0.21995 c 0.58656,0 1.01437,0.1773 1.28319,0.53162 0.26884,0.35437 0.3542,0.85547 0.25644,1.50313 l -0.38465,2.4194 c -0.0978,0.64766 -0.33628,1.14875 -0.71507,1.50313 -0.37881,0.35438 -0.86136,0.53161 -1.4479,0.53161 -0.58656,0 -1.02092,-0.15873 -1.30194,-0.47637 -0.26885,-0.31769 -0.35421,-0.80678 -0.25645,-1.46662 l 0.42114,-2.60288 c 0.0978,-0.65987 0.33076,-1.14895 0.69737,-1.46664 0.37879,-0.31773 0.86134,-0.47638 1.44787,-0.47638 z" /><path
         id="path10"
         style="font-weight:bold;font-size:9.08897px;line-height:1.25;font-family:'JetBrains Mono';-inkscape-font-specification:'JetBrains Mono';font-variant-ligatures:none;letter-spacing:-0.15527px;fill:#a6e22e;fill-opacity:1;stroke-width:0.533706"
         d="m -279.32361,392.00919 c -0.46444,0 -0.83082,0.12243 -1.09974,0.36693 -0.26888,0.23223 -0.4034,0.54938 -0.4034,0.95274 0,0.40335 0.13455,0.72707 0.4034,0.97152 0.26892,0.23222 0.6353,0.34918 1.09974,0.34918 0.46445,0 0.83188,-0.11701 1.10076,-0.34918 0.26888,-0.24445 0.40237,-0.56817 0.40237,-0.97152 0,-0.40336 -0.13354,-0.72051 -0.40237,-0.95274 -0.26888,-0.24448 -0.63631,-0.36693 -1.10076,-0.36693 z m 21.37433,0 c -0.46446,0 -0.83083,0.12243 -1.09971,0.36693 -0.26892,0.23223 -0.40342,0.54938 -0.40342,0.95274 0,0.40335 0.13455,0.72707 0.40342,0.97152 0.26888,0.23222 0.63525,0.34918 1.09971,0.34918 0.46445,0 0.83187,-0.11701 1.10076,-0.34918 0.26891,-0.24445 0.40239,-0.56817 0.40239,-0.97152 0,-0.40336 -0.13353,-0.72051 -0.40239,-0.95274 -0.26889,-0.24448 -0.63631,-0.36693 -1.10076,-0.36693 z m 8.286,1.48541 v 2.84158 h -2.78736 v 2.07124 h 2.78736 v 4.98681 c 0,0.9289 0.27455,1.66818 0.82454,2.21822 0.56224,0.53779 1.31358,0.80683 2.25471,0.80683 h 3.15428 v -2.07124 h -2.98855 c -0.29335,0 -0.52624,-0.0917 -0.69736,-0.2752 -0.15896,-0.19547 -0.23767,-0.4405 -0.23767,-0.73386 v -4.93156 h 4.01533 v -2.07124 h -4.01533 v -2.84158 z m -18.44102,2.65812 c -0.73335,0 -1.33812,0.18922 -1.81481,0.56809 -0.47667,0.36668 -0.7763,0.86759 -0.89854,1.50315 v -1.88778 h -2.23699 v 10.0831 h 2.29221 v -6.30651 c 0,-0.63558 0.15856,-1.1244 0.4764,-1.46664 0.33002,-0.34223 0.78169,-0.51392 1.35616,-0.51392 0.55001,0 0.98415,0.17167 1.30194,0.51392 0.33001,0.33001 0.49515,0.8068 0.49515,1.43016 v 6.34299 h 2.29222 v -6.61818 c 0,-1.11224 -0.29964,-1.99808 -0.89855,-2.65812 -0.58667,-0.66001 -1.37515,-0.99026 -2.36519,-0.99026 z m -15.28883,0.18337 v 2.07122 h 3.07923 v 5.94062 h -3.44615 v 2.07125 h 8.83639 v -2.07125 h -3.098 v -8.01184 z m 21.37433,0 v 2.07122 h 3.07925 v 5.94062 h -3.44618 v 2.07125 h 8.8364 v -2.07125 h -3.09799 v -8.01184 z" /><path
         style="font-weight:bold;font-size:9.08897px;line-height:1.25;font-family:'JetBrains Mono';-inkscape-font-specification:'JetBrains Mono';font-variant-ligatures:none;letter-spacing:-0.15527px;fill:#f92672;fill-opacity:1;stroke-width:0.523998"
         d="m -247.42497,387.69812 q -0.75603,0 -1.22403,-0.44999 -0.45002,-0.46799 -0.45002,-1.20602 0,-0.73803 0.45002,-1.20604 0.468,-0.46802 1.22403,-0.46802 0.75602,0 1.20602,0.46802 0.46802,0.46801 0.46802,1.20604 0,0.73801 -0.46802,1.20602 -0.45,0.44999 -1.20602,0.44999 z"
         id="path11" /></g></g></svg>
