<?xml version="1.0" encoding="UTF-8" standalone="no"?>
<!-- Created with Inkscape (http://www.inkscape.org/) -->

<svg
   width="58.663822mm"
   height="13.89464mm"
   viewBox="0 0 58.663823 13.89464"
   version="1.1"
   id="svg5"
   inkscape:version="1.3.2 (091e20ef0f, 2023-11-25, custom)"
   sodipodi:docname="logo.svg"
   xmlns:inkscape="http://www.inkscape.org/namespaces/inkscape"
   xmlns:sodipodi="http://sodipodi.sourceforge.net/DTD/sodipodi-0.dtd"
   xmlns="http://www.w3.org/2000/svg"
   xmlns:svg="http://www.w3.org/2000/svg">
  <sodipodi:namedview
     id="namedview7"
     pagecolor="#222222"
     bordercolor="#eeeeee"
     borderopacity="1"
     inkscape:pageshadow="0"
     inkscape:pageopacity="0"
     inkscape:pagecheckerboard="0"
     inkscape:document-units="mm"
     showgrid="false"
     fit-margin-top="0"
     fit-margin-left="0"
     fit-margin-right="0"
     fit-margin-bottom="0"
     inkscape:showpageshadow="0"
     inkscape:deskcolor="#d1d1d1"
     showguides="true"
     inkscape:zoom="4.1719302"
     inkscape:cx="112.77754"
     inkscape:cy="23.250629"
     inkscape:window-width="1920"
     inkscape:window-height="1014"
     inkscape:window-x="1920"
     inkscape:window-y="29"
     inkscape:window-maximized="1"
     inkscape:current-layer="layer1" />
  <defs
     id="defs2" />
  <g
     inkscape:label="Layer 1"
     inkscape:groupmode="layer"
     id="layer1"
     transform="translate(-154.95964,-244.93794)"
     style="display:inline">
    <path
       id="rect1"
       style="fill:#272822;stroke-width:0.465;stroke-linecap:round;paint-order:stroke fill markers"
       d="m 154.95964,244.93794 h 58.66382 v 13.89464 h -58.66382 z" />
    <path
       style="font-weight:bold;font-size:9.08897px;line-height:1.25;font-family:'JetBrains Mono';-inkscape-font-specification:'JetBrains Mono';font-variant-ligatures:none;letter-spacing:-0.15527px;fill:#f8f8f2;fill-opacity:1;stroke-width:0.264583"
       d="m 205.9311,256.20252 v -1.13612 q 0.80892,-0.19087 1.27245,-0.83618 0.47262,-0.65441 0.47262,-1.58148 v -1.62693 q 0,-0.92708 -0.47262,-1.57239 -0.46353,-0.65441 -1.27245,-0.84528 v -1.12703 q 1.38151,0.3272 2.1359,1.25428 0.75439,0.92707 0.75439,2.29042 v 1.62693 q 0,1.37243 -0.75439,2.30859 -0.75439,0.92708 -2.1359,1.24519 z"
       id="path29" />
    <path
       style="font-weight:bold;font-size:9.08897px;line-height:1.25;font-family:'JetBrains Mono';-inkscape-font-specification:'JetBrains Mono';font-variant-ligatures:none;letter-spacing:-0.15527px;fill:#f8f8f2;fill-opacity:1;stroke-width:0.264583"
       d="m 203.9959,256.20252 q -1.38153,-0.31811 -2.13592,-1.24519 -0.75439,-0.93616 -0.75439,-2.30859 v -1.62693 q 0,-1.36335 0.75439,-2.29042 0.75439,-0.92708 2.13592,-1.25428 v 1.12703 q -0.80892,0.19087 -1.28156,0.84528 -0.46353,0.64531 -0.46353,1.57239 v 1.62693 q 0,0.92707 0.46353,1.58148 0.47264,0.64531 1.28156,0.83618 z"
       id="text2" />
    <path
       id="path19"
       style="font-weight:bold;font-size:9.08897px;line-height:1.25;font-family:'JetBrains Mono';-inkscape-font-specification:'JetBrains Mono';font-variant-ligatures:none;letter-spacing:-0.15527px;fill:#a6e22e;fill-opacity:1;stroke-width:0.264583"
       d="M 182.18847 249.05862 C 181.95822 249.05862 181.77659 249.11933 181.64328 249.24052 C 181.50998 249.35565 181.44329 249.51288 181.44329 249.71284 C 181.44329 249.9128 181.50998 250.07328 181.64328 250.19447 C 181.77659 250.30959 181.95822 250.36758 182.18847 250.36758 C 182.41872 250.36758 182.60087 250.30959 182.73417 250.19447 C 182.86747 250.07328 182.93364 249.9128 182.93364 249.71284 C 182.93364 249.51288 182.86747 249.35565 182.73417 249.24052 C 182.60087 249.11933 182.41872 249.05862 182.18847 249.05862 z M 192.78472 249.05862 C 192.55447 249.05862 192.37284 249.11933 192.23954 249.24052 C 192.10623 249.35565 192.03955 249.51288 192.03955 249.71284 C 192.03955 249.9128 192.10623 250.07328 192.23954 250.19447 C 192.37284 250.30959 192.55447 250.36758 192.78472 250.36758 C 193.01497 250.36758 193.19712 250.30959 193.33042 250.19447 C 193.46373 250.07328 193.5299 249.9128 193.5299 249.71284 C 193.5299 249.51288 193.46373 249.35565 193.33042 249.24052 C 193.19712 249.11933 193.01497 249.05862 192.78472 249.05862 z M 196.89248 249.79501 L 196.89248 251.20371 L 195.51065 251.20371 L 195.51065 252.23052 L 196.89248 252.23052 L 196.89248 254.70272 C 196.89248 255.16322 197.02858 255.52972 197.30124 255.80239 C 197.57997 256.069 197.95244 256.20237 198.419 256.20237 L 199.98273 256.20237 L 199.98273 255.17556 L 198.50117 255.17556 C 198.35574 255.17556 198.24028 255.13003 198.15545 255.03913 C 198.07668 254.94219 198.03763 254.82076 198.03763 254.67533 L 198.03763 252.23052 L 200.02821 252.23052 L 200.02821 251.20371 L 198.03763 251.20371 L 198.03763 249.79501 L 196.89248 249.79501 z M 187.7504 251.11276 C 187.38685 251.11276 187.08703 251.20655 186.85072 251.39439 C 186.61441 251.57617 186.46587 251.82449 186.40527 252.13957 L 186.40527 251.20371 L 185.29629 251.20371 L 185.29629 256.20237 L 186.43265 256.20237 L 186.43265 253.07594 C 186.43265 252.76086 186.51127 252.51852 186.66882 252.34886 C 186.83242 252.1792 187.05634 252.09409 187.34113 252.09409 C 187.61379 252.09409 187.82902 252.1792 187.98656 252.34886 C 188.15016 252.51246 188.23203 252.74883 188.23203 253.05786 L 188.23203 256.20237 L 189.36839 256.20237 L 189.36839 252.92143 C 189.36839 252.37004 189.21985 251.93089 188.92294 251.60368 C 188.6321 251.27648 188.24121 251.11276 187.7504 251.11276 z M 180.17102 251.20371 L 180.17102 252.23052 L 181.69754 252.23052 L 181.69754 255.17556 L 179.98912 255.17556 L 179.98912 256.20237 L 184.36973 256.20237 L 184.36973 255.17556 L 182.83391 255.17556 L 182.83391 251.20371 L 180.17102 251.20371 z M 190.76727 251.20371 L 190.76727 252.23052 L 192.2938 252.23052 L 192.2938 255.17556 L 190.58537 255.17556 L 190.58537 256.20237 L 194.96598 256.20237 L 194.96598 255.17556 L 193.43016 255.17556 L 193.43016 251.20371 L 190.76727 251.20371 z " />
    <path
       style="font-weight:bold;font-size:9.08897px;line-height:1.25;font-family:'JetBrains Mono';-inkscape-font-specification:'JetBrains Mono';font-variant-ligatures:none;letter-spacing:-0.15527px;fill:#f92672;fill-opacity:1;stroke-width:0.264583"
       d="m 176.88705,256.20252 q -0.38174,0 -0.61805,-0.22722 -0.22722,-0.23631 -0.22722,-0.60896 0,-0.37265 0.22722,-0.60896 0.23631,-0.23632 0.61805,-0.23632 0.38174,0 0.60896,0.23632 0.23632,0.23631 0.23632,0.60896 0,0.37265 -0.23632,0.60896 -0.22722,0.22722 -0.60896,0.22722 z"
       id="path28" />
    <path
       id="path5"
       style="font-style:italic;font-weight:bold;font-size:9.08684px;line-height:1.25;font-family:'JetBrains Mono';-inkscape-font-specification:'JetBrains Mono Bold Italic';font-variant-ligatures:none;letter-spacing:-0.155233px;fill:#fd971f;stroke-width:0.264582"
       d="M 163.20875 249.57228 L 162.98137 250.97168 L 162.83616 252.10753 C 162.79376 251.79858 162.66682 251.55612 162.45479 251.38044 C 162.24276 251.20476 161.96396 251.11689 161.61867 251.11689 C 161.10375 251.11689 160.67685 251.28342 160.33761 251.6166 C 160.00442 251.94979 159.78909 252.42224 159.69217 253.03409 L 159.47409 254.38801 C 159.41349 254.76966 159.4287 255.10271 159.51957 255.38743 C 159.61649 255.67215 159.7738 255.89669 159.99189 256.06026 C 160.20997 256.21776 160.47683 256.29642 160.79184 256.29642 C 161.15532 256.29642 161.46722 256.21127 161.7277 256.04166 C 161.99425 255.86598 162.19388 255.61482 162.32715 255.2877 L 162.18194 256.20547 L 163.2904 256.20547 L 164.3446 249.57228 L 163.20875 249.57228 z M 167.37904 251.11689 C 166.71267 251.11689 166.16701 251.29263 165.74296 251.64399 C 165.32497 251.98929 165.0646 252.47966 164.96161 253.11574 L 164.77093 254.29706 C 164.70431 254.69688 164.73466 255.04836 164.86188 255.35126 C 164.98909 255.6481 165.19521 255.88134 165.47993 256.05096 C 165.77059 256.21445 166.12839 256.29635 166.55221 256.29642 C 167.11537 256.29634 167.59415 256.17213 167.98779 255.92383 C 168.38155 255.67546 168.65386 255.32721 168.80531 254.87894 L 167.68806 254.87894 C 167.62748 255.03644 167.506 255.15741 167.32426 255.24222 C 167.14253 255.32097 166.93368 255.36056 166.69742 255.36056 C 166.37636 255.36056 166.13987 255.27541 165.98842 255.10579 C 165.84301 254.93011 165.8007 254.67299 165.8613 254.33375 L 165.91608 254.01542 L 167.67876 254.01542 C 168.09675 254.01542 168.43902 253.90964 168.70557 253.69761 C 168.97816 253.48559 169.14468 253.17966 169.20528 252.77984 C 169.25374 252.45271 169.20818 252.1647 169.06886 251.91633 C 168.92952 251.66189 168.71471 251.465 168.42393 251.32566 C 168.13315 251.18633 167.78492 251.11689 167.37904 251.11689 z M 170.24966 251.20784 L 171.14005 256.20547 L 172.58492 256.20547 L 175.0473 251.20784 L 173.81172 251.20784 L 172.38493 254.25158 C 172.30012 254.42726 172.21822 254.60898 172.13947 254.79677 C 172.06676 254.97851 172.01522 255.13634 171.98496 255.26961 C 171.99096 255.13634 171.98229 254.97851 171.95809 254.79677 C 171.93989 254.60898 171.91872 254.42453 171.89452 254.2428 L 171.4036 251.20784 L 170.24966 251.20784 z M 167.23331 251.98919 C 167.51804 251.98919 167.73609 252.06512 167.88753 252.21657 C 168.04502 252.36196 168.10577 252.55237 168.06943 252.78862 C 168.03915 252.95822 167.98165 253.07646 167.89683 253.14312 C 167.81808 253.20979 167.721 253.24338 167.6059 253.24338 L 166.0339 253.25216 L 166.06129 253.07956 C 166.10975 252.73426 166.23397 252.46792 166.43388 252.28013 C 166.63984 252.08627 166.90618 251.98919 167.23331 251.98919 z M 161.88221 252.09823 C 162.17299 252.09823 162.38508 252.1861 162.51835 252.36178 C 162.65162 252.53746 162.69394 252.78588 162.64548 253.10695 L 162.45479 254.30636 C 162.40632 254.62743 162.28808 254.87585 162.10029 255.05153 C 161.9125 255.22721 161.67328 255.31508 161.3825 255.31508 C 161.09172 255.31508 160.87639 255.23642 160.73707 255.07892 C 160.60379 254.92142 160.56147 254.67896 160.60994 254.35184 L 160.81871 253.06148 C 160.86717 252.73435 160.98269 252.49189 161.16443 252.33439 C 161.35222 252.17688 161.59144 252.09823 161.88221 252.09823 z " />
  </g>
</svg>
