<?xml version="1.0" encoding="UTF-8" standalone="no"?>
<!-- Created with Inkscape (http://www.inkscape.org/) -->

<svg
   width="58.663822mm"
   height="13.89464mm"
   viewBox="0 0 58.663823 13.89464"
   version="1.1"
   id="svg5"
   inkscape:version="1.3.2 (091e20ef0f, 2023-11-25, custom)"
   sodipodi:docname="logo.svg"
   xmlns:inkscape="http://www.inkscape.org/namespaces/inkscape"
   xmlns:sodipodi="http://sodipodi.sourceforge.net/DTD/sodipodi-0.dtd"
   xmlns="http://www.w3.org/2000/svg"
   xmlns:svg="http://www.w3.org/2000/svg">
  <sodipodi:namedview
     id="namedview7"
     pagecolor="#222222"
     bordercolor="#eeeeee"
     borderopacity="1"
     inkscape:pageshadow="0"
     inkscape:pageopacity="0"
     inkscape:pagecheckerboard="0"
     inkscape:document-units="mm"
     showgrid="false"
     fit-margin-top="0"
     fit-margin-left="0"
     fit-margin-right="0"
     fit-margin-bottom="0"
     inkscape:showpageshadow="0"
     inkscape:deskcolor="#d1d1d1"
     showguides="true"
     inkscape:zoom="5.9000002"
     inkscape:cx="97.711861"
     inkscape:cy="34.999999"
     inkscape:window-width="1920"
     inkscape:window-height="1043"
     inkscape:window-x="0"
     inkscape:window-y="0"
     inkscape:window-maximized="1"
     inkscape:current-layer="layer1" />
  <defs
     id="defs2" />
  <g
     inkscape:label="Layer 1"
     inkscape:groupmode="layer"
     id="layer1"
     transform="translate(-154.95964,-244.93794)"
     style="display:inline">
    <rect
       style="fill:#272822;fill-opacity:1;stroke-width:0.465;stroke-linecap:round;paint-order:stroke fill markers"
       id="rect1"
       width="58.663822"
       height="13.89464"
       x="154.95964"
       y="244.93794" />
    <g
       id="g30"
       style="fill:#f8f8f2;fill-opacity:1"
       transform="translate(75.595905,-12.688631)">
      <path
         style="font-weight:bold;font-size:9.08897px;line-height:1.25;font-family:'JetBrains Mono';-inkscape-font-specification:'JetBrains Mono';font-variant-ligatures:none;letter-spacing:-0.15527px;fill:#f8f8f2;fill-opacity:1;stroke-width:0.264583"
         d="m 130.33519,268.89115 v -1.13612 q 0.80892,-0.19087 1.27245,-0.83618 0.47263,-0.65441 0.47263,-1.58148 v -1.62693 q 0,-0.92708 -0.47263,-1.57239 -0.46353,-0.65441 -1.27245,-0.84528 v -1.12703 q 1.38152,0.3272 2.1359,1.25428 0.75439,0.92707 0.75439,2.29042 v 1.62693 q 0,1.37243 -0.75439,2.30859 -0.75438,0.92708 -2.1359,1.24519 z"
         id="path29" />
      <path
         style="font-weight:bold;font-size:9.08897px;line-height:1.25;font-family:'JetBrains Mono';-inkscape-font-specification:'JetBrains Mono';font-variant-ligatures:none;letter-spacing:-0.15527px;fill:#f8f8f2;fill-opacity:1;stroke-width:0.264583"
         d="m 128.39999,268.89115 q -1.38153,-0.31811 -2.13591,-1.24519 -0.75439,-0.93616 -0.75439,-2.30859 v -1.62693 q 0,-1.36335 0.75439,-2.29042 0.75438,-0.92708 2.13591,-1.25428 v 1.12703 q -0.80892,0.19087 -1.28155,0.84528 -0.46354,0.64531 -0.46354,1.57239 v 1.62693 q 0,0.92707 0.46354,1.58148 0.47263,0.64531 1.28155,0.83618 z"
         id="text2" />
    </g>
    <g
       id="g28"
       transform="translate(3.9168951,1.5151667)"
       style="fill:#a6e22e;fill-opacity:1">
      <path
         style="font-weight:bold;font-size:9.08897px;line-height:1.25;font-family:'JetBrains Mono';-inkscape-font-specification:'JetBrains Mono';font-variant-ligatures:none;letter-spacing:-0.15527px;fill:#a6e22e;fill-opacity:1;stroke-width:0.264583"
         d="m 194.50235,254.68735 q -0.69985,0 -1.11795,-0.39991 -0.409,-0.40901 -0.409,-1.09977 v -2.4722 h -1.38152 v -1.02705 h 1.38152 v -1.40879 h 1.14521 v 1.40879 h 1.99048 v 1.02705 h -1.99048 v 2.44493 q 0,0.21814 0.11816,0.36356 0.12724,0.13634 0.34538,0.13634 h 1.4815 v 1.02705 z"
         id="path19" />
      <path
         style="font-weight:bold;font-size:9.08897px;line-height:1.25;font-family:'JetBrains Mono';-inkscape-font-specification:'JetBrains Mono';font-variant-ligatures:none;letter-spacing:-0.15527px;fill:#a6e22e;fill-opacity:1;stroke-width:0.264583"
         d="m 188.86794,248.85223 q -0.34538,0 -0.54534,-0.17269 -0.19996,-0.18178 -0.19996,-0.48171 0,-0.29994 0.19996,-0.47263 0.19996,-0.18178 0.54534,-0.18178 0.34538,0 0.54534,0.18178 0.19996,0.17269 0.19996,0.47263 0,0.29993 -0.19996,0.48171 -0.19996,0.17269 -0.54534,0.17269 z"
         id="path18" />
      <path
         style="font-weight:bold;font-size:9.08897px;line-height:1.25;font-family:'JetBrains Mono';-inkscape-font-specification:'JetBrains Mono';font-variant-ligatures:none;letter-spacing:-0.15527px;fill:#a6e22e;fill-opacity:1;stroke-width:0.264583"
         d="m 186.66841,254.68735 v -1.02705 h 1.70873 v -2.94483 h -1.52695 v -1.02705 h 2.66307 v 3.97188 h 1.53603 v 1.02705 z"
         id="path17" />
      <path
         style="font-weight:bold;font-size:9.08897px;line-height:1.25;font-family:'JetBrains Mono';-inkscape-font-specification:'JetBrains Mono';font-variant-ligatures:none;letter-spacing:-0.15527px;fill:#a6e22e;fill-opacity:1;stroke-width:0.264583"
         d="m 181.37938,254.68735 v -4.99893 h 1.10886 v 0.93616 q 0.0909,-0.47262 0.44536,-0.74529 0.35447,-0.28176 0.8998,-0.28176 0.73621,0 1.17248,0.4908 0.44536,0.49081 0.44536,1.3179 v 3.28112 h -1.13612 v -3.14478 q 0,-0.46354 -0.2454,-0.70894 -0.23632,-0.25449 -0.64532,-0.25449 -0.42718,0 -0.67258,0.25449 -0.23632,0.25449 -0.23632,0.72712 v 3.1266 z"
         id="path16" />
      <path
         style="font-weight:bold;font-size:9.08897px;line-height:1.25;font-family:'JetBrains Mono';-inkscape-font-specification:'JetBrains Mono';font-variant-ligatures:none;letter-spacing:-0.15527px;fill:#a6e22e;fill-opacity:1;stroke-width:0.264583"
         d="m 178.27171,248.85223 q -0.34538,0 -0.54534,-0.17269 -0.19996,-0.18178 -0.19996,-0.48171 0,-0.29994 0.19996,-0.47263 0.19996,-0.18178 0.54534,-0.18178 0.34538,0 0.54534,0.18178 0.19995,0.17269 0.19995,0.47263 0,0.29993 -0.19995,0.48171 -0.19996,0.17269 -0.54534,0.17269 z"
         id="path15" />
      <path
         style="font-weight:bold;font-size:9.08897px;line-height:1.25;font-family:'JetBrains Mono';-inkscape-font-specification:'JetBrains Mono';font-variant-ligatures:none;letter-spacing:-0.15527px;fill:#a6e22e;fill-opacity:1;stroke-width:0.264583"
         d="m 176.07218,254.68735 v -1.02705 h 1.70872 v -2.94483 h -1.52694 v -1.02705 h 2.66307 v 3.97188 h 1.53603 v 1.02705 z"
         id="path14" />
    </g>
    <path
       style="font-weight:bold;font-size:9.08897px;line-height:1.25;font-family:'JetBrains Mono';-inkscape-font-specification:'JetBrains Mono';font-variant-ligatures:none;letter-spacing:-0.15527px;fill:#f92672;fill-opacity:1;stroke-width:0.264583"
       d="m 176.88705,256.20252 q -0.38174,0 -0.61805,-0.22722 -0.22722,-0.23631 -0.22722,-0.60896 0,-0.37265 0.22722,-0.60896 0.23631,-0.23632 0.61805,-0.23632 0.38174,0 0.60896,0.23632 0.23632,0.23631 0.23632,0.60896 0,0.37265 -0.23632,0.60896 -0.22722,0.22722 -0.60896,0.22722 z"
       id="path28" />
    <text
       xml:space="preserve"
       style="font-size:9.08684px;line-height:1.25;font-family:'JetBrains Mono';-inkscape-font-specification:'JetBrains Mono';font-variant-ligatures:none;letter-spacing:-0.155233px;fill:#a6e22e;fill-opacity:1;stroke-width:0.264582"
       x="158.93794"
       y="256.20547"
       id="text1"><tspan
         sodipodi:role="line"
         id="tspan1"
         style="font-style:italic;font-variant:normal;font-weight:bold;font-stretch:normal;font-family:'JetBrains Mono';-inkscape-font-specification:'JetBrains Mono Bold Italic';fill:#fd971f;fill-opacity:1;stroke-width:0.264582"
         x="158.93794"
         y="256.20547">dev</tspan></text>
  </g>
</svg>
